HIERARCHY
ROOT Hips
{
	OFFSET 55.310501 45.591206 43.872097
	CHANNELS 6 Xposition Yposition Zposition Zrotation Xrotation Yrotation
	JOINT Chest
	{
		OFFSET -0.153500 1.163101 7.852402
		CHANNELS 6 Xposition Yposition Zposition Zrotation Xrotation Yrotation
		JOINT Chest2
		{
			OFFSET 0.000000 0.000000 3.343300
			CHANNELS 6 Xposition Yposition Zposition Zrotation Xrotation Yrotation
			JOINT Neck
			{
				OFFSET 0.000000 0.000000 7.785500
				CHANNELS 6 Xposition Yposition Zposition Zrotation Xrotation Yrotation
				JOINT Head
				{
					OFFSET 0.000000 0.000000 2.173901
					CHANNELS 6 Xposition Yposition Zposition Zrotation Xrotation Yrotation
					End Site
					{
						OFFSET 0.000000 0.000000 10.528198
					}
				}
			}
			JOINT LeftCollar
			{
				OFFSET 2.676300 -1.652401 4.938301
				CHANNELS 6 Xposition Yposition Zposition Zrotation Xrotation Yrotation
				JOINT LeftShoulder
				{
					OFFSET 4.299000 0.000000 0.000000
					CHANNELS 6 Xposition Yposition Zposition Zrotation Xrotation Yrotation
					JOINT LeftElbow
					{
						OFFSET 0.000000 0.000000 -10.245102
						CHANNELS 6 Xposition Yposition Zposition Zrotation Xrotation Yrotation
						JOINT LeftWrist
						{
							OFFSET 0.000000 0.000000 -12.703300
							CHANNELS 6 Xposition Yposition Zposition Zrotation Xrotation Yrotation
							End Site
							{
								OFFSET 0.000000 0.000000 -2.173901
							}
						}
					}
				}
			}
			JOINT RightCollar
			{
				OFFSET -2.534599 -1.686401 5.195000
				CHANNELS 6 Xposition Yposition Zposition Zrotation Xrotation Yrotation
				JOINT RightShoulder
				{
					OFFSET -4.144100 0.000000 0.000000
					CHANNELS 6 Xposition Yposition Zposition Zrotation Xrotation Yrotation
					JOINT RightElbow
					{
						OFFSET 0.000000 0.000000 -10.116501
						CHANNELS 6 Xposition Yposition Zposition Zrotation Xrotation Yrotation
						JOINT RightWrist
						{
							OFFSET 0.000000 0.000000 -12.937801
							CHANNELS 6 Xposition Yposition Zposition Zrotation Xrotation Yrotation
							End Site
							{
								OFFSET 0.000000 0.000000 -2.173901
							}
						}
					}
				}
			}
		}
	}
	JOINT LeftHip
	{
		OFFSET 2.175598 0.064499 -2.662899
		CHANNELS 6 Xposition Yposition Zposition Zrotation Xrotation Yrotation
		JOINT LeftKnee
		{
			OFFSET 0.000000 -0.000004 -18.585800
			CHANNELS 6 Xposition Yposition Zposition Zrotation Xrotation Yrotation
			JOINT LeftAnkle
			{
				OFFSET 0.000000 0.000000 -18.979500
				CHANNELS 6 Xposition Yposition Zposition Zrotation Xrotation Yrotation
				End Site
				{
					OFFSET 0.000000 -9.264000 0.000000
				}
			}
		}
	}
	JOINT RightHip
	{
		OFFSET -2.092400 -0.058102 -2.581200
		CHANNELS 6 Xposition Yposition Zposition Zrotation Xrotation Yrotation
		JOINT RightKnee
		{
			OFFSET 0.000000 -0.000004 -18.665001
			CHANNELS 6 Xposition Yposition Zposition Zrotation Xrotation Yrotation
			JOINT RightAnkle
			{
				OFFSET 0.000000 0.000000 -18.566601
				CHANNELS 6 Xposition Yposition Zposition Zrotation Xrotation Yrotation
				End Site
				{
					OFFSET 0.000000 -8.497601 0.000000
				}
			}
		}
	}
}
MOTION
Frames: 4
Frame Time: 0.041667
66.321007 -7.115795 40.135998 3160.757137 44.229563 24.285105 -0.153499 1.163108 7.852402 19.373164 5.420989 9.813939 0.000009 -0.000005 3.343301 -4.702613 -3.644519 0.033247 -0.000002 0.000002 7.785501 53.955113 -26.256905 16.055413 0.000002 0.000004 2.173902 5.353139 -11.597139 7.332525 2.676294 -1.652395 4.938300 -7.207261 7.703821 4.286529 4.298991 0.000011 -0.000004 -358.130942 16.085206 261.205394 -0.000005 -0.000002 -10.245104 8.719324 730.100449 384.209178 -0.000010 0.000010 -12.703297 1214.765318 -172.963052 557.240656 -2.534602 -1.686402 5.195007 10.499895 13.011338 15.955595 -4.144104 0.000007 0.000000 156.646714 181.542344 -84.136435 0.000002 0.000010 -10.116500 -584.826478 -168.172604 -195.735108 0.000004 -0.000004 -12.937802 -1430.330131 -12.024240 12.707985 2.175602 0.064502 -2.662901 -972.140387 -31.274948 71.263974 0.000003 0.000000 -18.585804 448.440933 -225.908466 -148.671430 0.000002 0.000002 -18.979504 718.789000 4.877200 -740.286611 -2.092396 -0.058101 -2.581190 1525.095017 43.508281 -33.532363 -0.000006 -0.000008 -18.665003 -1272.018040 143.848497 -997.463778 -0.000014 -0.000004 -18.566620 633.788990 -1.025854 137.067485
66.325104 -7.114197 40.150093 3160.759760 44.189835 24.270263 -0.153501 1.163093 7.852405 19.480140 5.261250 9.813568 0.000007 -0.000005 3.343307 -4.726811 -3.593517 0.032438 -0.000004 -0.000008 7.785497 54.006712 -26.043725 15.833956 0.000000 0.000006 2.173910 5.265010 -11.656452 7.272651 2.676295 -1.652399 4.938302 -7.374975 7.832764 4.293621 4.299006 0.000006 -0.000011 -358.056739 15.970248 261.248015 -0.000005 -0.000006 -10.245100 8.596824 729.984554 384.252810 -0.000010 0.000005 -12.703307 1214.834603 -172.940007 557.219345 -2.534601 -1.686402 5.195000 10.516797 13.061965 16.025845 -4.144096 0.000006 0.000002 156.625226 181.100198 -84.104750 0.000007 0.000006 -10.116491 -585.048541 -168.114369 -195.810445 -0.000000 -0.000002 -12.937800 -1430.423568 -12.015087 12.971003 2.175592 0.064491 -2.662893 -971.782704 -31.162605 71.250635 0.000001 0.000003 -18.585800 450.105969 -226.406646 -149.627124 -0.000004 0.000005 -18.979500 717.188605 5.057308 -740.502335 -2.092394 -0.058111 -2.581202 1524.375389 43.715478 -33.041638 -0.000007 -0.000005 -18.665007 -1271.420917 144.182179 -997.334169 -0.000010 -0.000005 -18.566608 633.265196 -1.141562 137.684333
66.326508 -7.111294 40.164795 3160.730035 44.155472 24.276753 -0.153502 1.163096 7.852400 19.666201 5.168966 9.763790 0.000011 0.000004 3.343305 -4.767496 -3.627920 0.033022 0.000005 -0.000004 7.785501 53.879722 -25.779246 15.765282 0.000012 0.000006 2.173909 5.215349 -11.720768 7.119233 2.676298 -1.652404 4.938297 -7.297477 7.724839 4.444218 4.299003 -0.000008 -0.000003 -358.174765 16.284020 261.239218 -0.000016 -0.000002 -10.245113 8.818629 729.841175 384.074323 -0.000006 -0.000001 -12.703308 1214.753952 -172.903794 557.216887 -2.534592 -1.686400 5.195000 10.576365 13.232354 16.262166 -4.144100 0.000010 0.000001 156.357046 181.301866 -84.191241 -0.000002 -0.000002 -10.116491 -585.034444 -168.028814 -196.107217 0.000005 -0.000003 -12.937800 -1429.917479 -12.019991 12.933342 2.175596 0.064495 -2.662905 -971.293225 -31.015076 71.240519 0.000002 -0.000004 -18.585793 452.183959 -226.948758 -150.844140 -0.000007 -0.000001 -18.979500 715.224734 5.252239 -740.752102 -2.092398 -0.058107 -2.581196 1523.502982 43.952281 -32.325161 -0.000006 -0.000010 -18.665007 -1270.658559 143.771152 -997.428589 -0.000001 0.000002 -18.566608 633.430924 -1.075258 137.430714
66.323601 -7.106400 40.180687 3160.826641 44.049157 24.140639 -0.153503 1.163107 7.852407 19.820219 5.262351 9.811481 -0.000001 -0.000005 3.343302 -4.829218 -3.660344 0.032383 0.000003 0.000002 7.785499 53.841978 -25.637424 15.649101 -0.000004 0.000004 2.173904 5.101316 -11.738201 7.056324 2.676298 -1.652400 4.938298 -7.403619 7.798784 4.599577 4.299004 -0.000000 -0.000004 -358.103103 16.062476 261.128159 -0.000001 0.000004 -10.245103 8.640144 729.669000 383.931272 -0.000008 0.000001 -12.703306 1214.754280 -172.862184 557.193609 -2.534594 -1.686398 5.194999 10.501284 13.201648 16.428772 -4.144094 0.000004 -0.000004 156.272310 181.364349 -84.233130 -0.000003 -0.000002 -10.116495 -585.115750 -167.930733 -196.365015 0.000000 -0.000003 -12.937805 -1429.591378 -12.130697 12.831227 2.175594 0.064504 -2.662890 -970.804949 -30.805700 71.108936 -0.000005 -0.000005 -18.585804 453.851372 -227.327069 -151.656468 -0.000009 0.000002 -18.979500 713.600952 5.506972 -741.032413 -2.092392 -0.058095 -2.581190 1522.439986 44.297431 -31.603104 0.000002 0.000004 -18.665001 -1269.743751 142.928306 -997.510879 -0.000010 0.000005 -18.566622 633.970946 -0.934943 137.219183
